<?xml version="1.0" standalone="no"?>
<!DOCTYPE svg PUBLIC "-//W3C//DTD SVG 20010904//EN"
 "http://www.w3.org/TR/2001/REC-SVG-20010904/DTD/svg10.dtd">
<svg version="1.0" xmlns="http://www.w3.org/2000/svg"
 width="700.000000pt" height="700.000000pt" viewBox="0 0 700.000000 700.000000"
 preserveAspectRatio="xMidYMid meet">
<metadata>
Created by potrace 1.11, written by Peter Selinger 2001-2013
</metadata>
<g transform="translate(0.000000,700.000000) scale(0.100000,-0.100000)"
fill="#000000" stroke="none">
<path d="M5049 5656 c-2 -2 -44 -7 -94 -10 -49 -4 -99 -9 -110 -11 -11 -3 -36
-7 -55 -9 -226 -32 -498 -128 -695 -247 -460 -277 -766 -727 -884 -1299 -24
-115 -32 -173 -51 -347 -8 -81 -6 -550 3 -593 3 -14 8 -52 11 -84 7 -75 21
-155 51 -296 42 -201 157 -476 271 -653 313 -484 800 -774 1414 -843 103 -11
135 -13 310 -13 189 -1 232 2 460 36 58 8 253 60 331 88 41 15 79 28 84 29 6
1 27 10 49 19 21 9 40 17 43 17 12 0 199 99 291 153 l102 61 0 298 c0 164 -2
298 -5 298 -3 0 -42 -32 -88 -71 -154 -134 -380 -269 -557 -334 -41 -15 -84
-31 -95 -36 -26 -10 -122 -36 -159 -43 -16 -3 -52 -10 -80 -15 -28 -6 -67 -13
-86 -16 -57 -11 -400 -13 -470 -4 -152 21 -157 22 -264 49 -372 96 -672 348
-835 703 -35 75 -96 244 -105 292 -2 11 -9 38 -14 60 -37 139 -65 407 -65 625
0 85 11 292 17 326 2 11 7 46 10 79 12 101 56 294 93 400 119 342 337 607 620
753 127 65 298 123 412 138 25 3 49 8 52 10 26 15 380 23 495 11 282 -30 552
-123 790 -273 74 -46 184 -124 204 -144 3 -3 33 -29 68 -58 l62 -53 0 303 0
303 -82 51 c-126 78 -183 108 -301 158 -92 39 -147 58 -332 116 -46 14 -223
48 -290 56 -33 3 -69 8 -80 11 -24 6 -441 14 -446 9z"/>
<path d="M357 5582 c-16 -3 -17 -147 -17 -2128 l0 -2124 287 2 288 3 0 895 0
895 365 1 c396 1 496 -8 628 -52 138 -47 246 -130 350 -269 29 -38 56 -74 60
-80 40 -52 156 -273 413 -787 l304 -608 307 0 307 0 -22 48 c-103 214 -614
1224 -673 1327 -175 305 -350 500 -529 588 l-66 33 58 19 c255 84 460 264 567
499 89 195 121 471 86 741 -57 450 -291 746 -704 892 -91 32 -237 66 -332 79
-23 2 -53 7 -65 9 -63 12 -329 18 -935 19 -363 0 -668 0 -677 -2z m1493 -488
c195 -31 326 -91 435 -199 81 -81 123 -153 161 -280 24 -81 26 -106 27 -250 0
-134 -3 -174 -21 -245 -47 -182 -141 -315 -280 -397 -55 -32 -175 -81 -216
-88 -17 -3 -38 -8 -46 -10 -8 -2 -28 -7 -45 -11 -16 -4 -237 -9 -490 -11
l-461 -5 0 756 0 757 426 -2 c308 0 448 -5 510 -15z"/>
</g>
</svg>
